<?xml version="1.0" encoding="UTF-8" standalone="no"?>
<!-- Created with Inkscape (http://www.inkscape.org/) -->

<svg
   xmlns:dc="http://purl.org/dc/elements/1.1/"
   xmlns:cc="http://creativecommons.org/ns#"
   xmlns:rdf="http://www.w3.org/1999/02/22-rdf-syntax-ns#"
   xmlns:svg="http://www.w3.org/2000/svg"
   xmlns="http://www.w3.org/2000/svg"
   xmlns:sodipodi="http://sodipodi.sourceforge.net/DTD/sodipodi-0.dtd"
   xmlns:inkscape="http://www.inkscape.org/namespaces/inkscape"
   version="1.1"
   id="svg53024"
   xml:space="preserve"
   width="800"
   height="800"
   viewBox="0 0 800 800"
   sodipodi:docname="man-silhouette-purple-publicdomainvectors.org.svg"
   inkscape:version="0.92.4 (5da689c313, 2019-01-14)"><metadata
     id="metadata53030"><rdf:RDF><cc:Work
         rdf:about=""><dc:format>image/svg+xml</dc:format><dc:type
           rdf:resource="http://purl.org/dc/dcmitype/StillImage" /><dc:title></dc:title></cc:Work></rdf:RDF></metadata><defs
     id="defs53028"><clipPath
       clipPathUnits="userSpaceOnUse"
       id="clipPath53040"><path
         d="M 0,600 H 600 V 0 H 0 Z"
         id="path53038"
         inkscape:connector-curvature="0" /></clipPath></defs><sodipodi:namedview
     pagecolor="#ffffff"
     bordercolor="#666666"
     borderopacity="1"
     objecttolerance="10"
     gridtolerance="10"
     guidetolerance="10"
     inkscape:pageopacity="0"
     inkscape:pageshadow="2"
     inkscape:window-width="797"
     inkscape:window-height="480"
     id="namedview53026"
     showgrid="false"
     inkscape:zoom="0.295"
     inkscape:cx="400"
     inkscape:cy="400"
     inkscape:window-x="-8"
     inkscape:window-y="-8"
     inkscape:window-maximized="1"
     inkscape:current-layer="g53032" /><g
     id="g53032"
     inkscape:groupmode="layer"
     inkscape:label="man-silhouette-purple-publicdomainvectors.org"
     transform="matrix(1.3333333,0,0,-1.3333333,0,800)"><g
       id="g53034"><g
         id="g53036"
         clip-path="url(#clipPath53040)"><path
           d="m 321.052,533.675 -3.224,35.785 c -4.347,4.683 -10.898,7.828 -18.626,7.394 -3.132,-0.177 -6.024,-0.939 -8.613,-2.13 l 28.53,-41.431 c 0.751,0.058 1.388,0.189 1.933,0.382"
           style="fill:#5448a6;fill-opacity:1;fill-rule:nonzero;stroke:none"
           id="path53042"
           inkscape:connector-curvature="0" /><path
           d="m 326.455,543.134 c -0.435,3.328 -1.841,4.023 -4.85,4.931 0.473,3.917 0.957,7.826 1.454,11.714 -0.795,3.487 -2.614,6.862 -5.231,9.681 l 3.224,-35.785 c 3.983,1.409 3.024,6.115 5.403,9.459"
           style="fill:#454aa7;fill-opacity:1;fill-rule:nonzero;stroke:none"
           id="path53044"
           inkscape:connector-curvature="0" /><path
           d="m 318.185,533.261 c 0.329,-10e-4 0.64,0.01 0.934,0.032 l -28.53,41.431 c -5.616,-2.584 -9.79,-7.193 -11.812,-12.254 -0.783,-1.923 -2.185,-8.821 -0.507,-11.227 -0.272,-2.627 -1.229,-2.105 -3.403,-2.699 -0.903,-3.145 -1.828,-9.448 0.488,-12.129 0.218,-0.604 0.354,-0.846 0.523,-1.099 l 41.834,-4.881 c 0.189,0.937 0.353,1.877 0.473,2.826"
           style="fill:#6847a7;fill-opacity:1;fill-rule:nonzero;stroke:none"
           id="path53046"
           inkscape:connector-curvature="0" /><path
           d="m 316.956,527.071 c 0.268,1.13 0.53,2.246 0.756,3.364 l -41.834,4.881 c 0.122,-0.18 0.261,-0.367 0.46,-0.698 h 3.884 c 0.424,-7.038 2.543,-11.848 2.451,-20.21 -2.89,-2.504 -6.44,-7.435 -9.743,-9.747 l 2.535,-5.095 z"
           style="fill:#714aa9;fill-opacity:1;fill-rule:nonzero;stroke:none"
           id="path53048"
           inkscape:connector-curvature="0" /><path
           d="m 365.612,483.322 c -0.043,0.125 -0.087,0.248 -0.13,0.372 l -0.419,-0.293 z"
           style="fill:#3d4ca8;fill-opacity:1;fill-rule:nonzero;stroke:none"
           id="path53050"
           inkscape:connector-curvature="0" /><path
           d="m 365.482,483.694 c -0.178,0.515 -0.359,1.024 -0.544,1.526 l 0.125,-1.819 z"
           style="fill:#3d4ca8;fill-opacity:1;fill-rule:nonzero;stroke:none"
           id="path53052"
           inkscape:connector-curvature="0" /><path
           d="m 272.93,504.661 c -0.33,-0.23 -0.657,-0.435 -0.981,-0.609 -1.152,-0.614 -2.381,-1.154 -3.643,-1.656 l 7.159,-2.83 z"
           style="fill:#8642a5;fill-opacity:1;fill-rule:nonzero;stroke:none"
           id="path53054"
           inkscape:connector-curvature="0" /><path
           d="m 268.306,502.396 c -3.341,-1.328 -6.92,-2.376 -9.982,-3.715 -6.63,-2.927 -16.489,-2.865 -20.413,-8.106 -1.841,-2.437 -3.377,-6.041 -4.701,-9.97 l 42.255,18.961 z"
           style="fill:#983da4;fill-opacity:1;fill-rule:nonzero;stroke:none"
           id="path53056"
           inkscape:connector-curvature="0" /><path
           d="m 365.063,483.401 -0.125,1.819 c -0.63,1.721 -1.292,3.369 -1.991,4.901 -0.599,1.339 -0.198,2.377 -0.967,3.618 -2.651,4.12 -12.21,4.497 -17.518,6.275 -1.282,0.434 -3.177,1.053 -5.273,1.766 l -14.883,-15.628 z"
           style="fill:#494ca9;fill-opacity:1;fill-rule:nonzero;stroke:none"
           id="path53058"
           inkscape:connector-curvature="0" /><path
           d="m 339.189,501.78 c -4.523,1.536 -9.984,3.505 -12.242,4.977 -1.514,0.984 -2.895,2.203 -4.248,3.485 l 1.607,-24.09 z"
           style="fill:#4b4ca8;fill-opacity:1;fill-rule:nonzero;stroke:none"
           id="path53060"
           inkscape:connector-curvature="0" /><path
           d="m 324.306,486.152 -1.607,24.09 c -2.378,2.255 -4.666,4.704 -7.431,6.407 0.111,3.837 0.921,7.188 1.688,10.422 l -41.491,-27.505 z"
           style="fill:#5f4ba9;fill-opacity:1;fill-rule:nonzero;stroke:none"
           id="path53062"
           inkscape:connector-curvature="0" /><path
           d="m 254.184,427.335 c 0.069,0.272 0.15,0.543 0.244,0.81 v 0.004 c 0.772,-0.278 0.543,-0.146 0.872,-0.408 l 31,11.291 -57.996,22.66 c -0.211,-1.75 -0.421,-3.497 -0.64,-5.261 -1.779,-6.327 -2.559,-12.903 -3.605,-19.517 l 8.413,-17.487 z"
           style="fill:#ab4cac;fill-opacity:1;fill-rule:nonzero;stroke:none"
           id="path53064"
           inkscape:connector-curvature="0" /><path
           d="m 366.598,480.334 c -0.321,1.01 -0.649,2.009 -0.986,2.988 l -0.549,0.079 z"
           style="fill:#424ba8;fill-opacity:1;fill-rule:nonzero;stroke:none"
           id="path53066"
           inkscape:connector-curvature="0" /><path
           d="m 275.465,499.566 10.835,-60.534 38.006,47.12 z"
           style="fill:#7a50ad;fill-opacity:1;fill-rule:nonzero;stroke:none"
           id="path53068"
           inkscape:connector-curvature="0" /><path
           d="M 275.465,499.566 233.21,480.605 c -1.851,-5.489 -3.288,-11.613 -4.564,-16.084 -0.115,-0.946 -0.229,-1.887 -0.342,-2.829 l 57.996,-22.66 z"
           style="fill:#934cab;fill-opacity:1;fill-rule:nonzero;stroke:none"
           id="path53070"
           inkscape:connector-curvature="0" /><path
           d="m 324.306,486.152 47.946,-31.682 c -0.016,0.057 -0.029,0.116 -0.045,0.174 -0.324,3.134 -0.657,6.279 -0.985,9.423 -1.415,5.08 -2.907,10.845 -4.624,16.267 l -1.535,3.067 z"
           style="fill:#4e4da9;fill-opacity:1;fill-rule:nonzero;stroke:none"
           id="path53072"
           inkscape:connector-curvature="0" /><path
           d="m 309,411 34.676,16.976 c 0.445,1.861 1.023,3.578 1.756,5.099 0.826,-0.268 0.47,-0.096 0.981,-0.453 0.61,-0.743 0.955,-1.684 1.143,-2.747 l 27.091,13.264 c -0.678,3.886 -1.443,7.685 -2.395,11.331 l -47.946,31.682 z"
           style="fill:#614fab;fill-opacity:1;fill-rule:nonzero;stroke:none"
           id="path53074"
           inkscape:connector-curvature="0" /><path
           d="M 324.306,486.152 286.3,439.032 309,411 Z"
           style="fill:#7b51ae;fill-opacity:1;fill-rule:nonzero;stroke:none"
           id="path53076"
           inkscape:connector-curvature="0" /><path
           d="m 224.059,436.914 c -0.582,-3.679 -1.246,-7.369 -2.211,-11.035 -0.701,-2.644 -1.367,-5.28 -1.88,-7.935 l 12.504,1.483 z"
           style="fill:#c5289c;fill-opacity:1;fill-rule:nonzero;stroke:none"
           id="path53078"
           inkscape:connector-curvature="0" /><path
           d="m 250.559,412.856 c 0.355,1.556 1.935,3.845 2.425,5.372 0.931,3.022 0.46,6.229 1.2,9.107 l -21.712,-7.908 18.98,-12.516 c -0.491,2.138 -1.329,4.094 -0.893,5.945"
           style="fill:#af5bb4;fill-opacity:1;fill-rule:nonzero;stroke:none"
           id="path53080"
           inkscape:connector-curvature="0" /><path
           d="m 256.867,421.387 c 2.782,-8.268 1.97,-12.404 0.321,-18.257 l 14.666,-9.671 14.446,45.573 -31,-11.291 c 0.032,-0.025 0.066,-0.052 0.109,-0.085 1.405,-1.69 0.635,-3.782 1.458,-6.269"
           style="fill:#af5bb4;fill-opacity:1;fill-rule:nonzero;stroke:none"
           id="path53082"
           inkscape:connector-curvature="0" /><path
           d="m 347.872,417.773 c 1.797,-7.622 1.566,-16.46 3.391,-24.266 v -13.004 c 0.008,-0.038 0.018,-0.079 0.028,-0.118 l 18.76,-13.582 8.5,52.342 c -1.518,7.994 -2.538,16.172 -3.904,23.994 l -27.091,-13.264 c 0.627,-3.561 -0.543,-8.508 0.316,-12.102"
           style="fill:#6a4fac;fill-opacity:1;fill-rule:nonzero;stroke:none"
           id="path53084"
           inkscape:connector-curvature="0" /><path
           d="M 343.676,427.976 309,411 346.365,383.95 c -2.63,12.052 -5.711,31.418 -2.689,44.026"
           style="fill:#6a4fac;fill-opacity:1;fill-rule:nonzero;stroke:none"
           id="path53086"
           inkscape:connector-curvature="0" /><path
           d="m 380.781,368.383 c 0.056,2.635 0.115,5.314 0.178,8.063 0.106,4.54 1.691,11.085 0.474,16.2 -1.43,6.193 0.067,13.357 -1.454,19.761 -0.529,2.223 -0.999,4.473 -1.428,6.738 l -8.5,-52.342 z"
           style="fill:#5849a8;fill-opacity:1;fill-rule:nonzero;stroke:none"
           id="path53088"
           inkscape:connector-curvature="0" /><path
           d="m 352.387,363.226 17.664,3.577 -18.76,13.582 c 0.471,-2.014 1.005,-5.316 1.449,-7.078 0.676,-2.819 -0.324,-6.808 -0.353,-10.081"
           style="fill:#8956b1;fill-opacity:1;fill-rule:nonzero;stroke:none"
           id="path53090"
           inkscape:connector-curvature="0" /><path
           d="m 349.607,362.662 c -0.836,3.513 -1.335,7.361 -2.238,11.089 v 5.835 c -0.316,1.305 -0.656,2.771 -1.004,4.364 L 309,411 342.879,361.3 Z"
           style="fill:#8956b1;fill-opacity:1;fill-rule:nonzero;stroke:none"
           id="path53092"
           inkscape:connector-curvature="0" /><path
           d="m 232.472,419.427 -12.504,-1.483 c -1.082,-5.59 -1.484,-11.256 -0.084,-17.231 0.155,-2.881 0.312,-5.772 0.47,-8.664 l 1.971,-0.998 z"
           style="fill:#d02a9d;fill-opacity:1;fill-rule:nonzero;stroke:none"
           id="path53094"
           inkscape:connector-curvature="0" /><path
           d="m 309,411 -22.7,28.032 -14.446,-45.573 z"
           style="fill:#a15eb5;fill-opacity:1;fill-rule:nonzero;stroke:none"
           id="path53096"
           inkscape:connector-curvature="0" /><path
           d="m 220.354,392.049 c 0.024,-0.435 0.048,-0.868 0.071,-1.302 l 1.9,0.304 z"
           style="fill:#e51494;fill-opacity:1;fill-rule:nonzero;stroke:none"
           id="path53098"
           inkscape:connector-curvature="0" /><path
           d="m 255.409,396.675 c -0.33,-1.321 -0.568,-2.689 -0.783,-4.054 l 17.228,0.838 -14.666,9.671 c -0.536,-1.903 -1.161,-3.987 -1.779,-6.455"
           style="fill:#c04dae;fill-opacity:1;fill-rule:nonzero;stroke:none"
           id="path53100"
           inkscape:connector-curvature="0" /><path
           d="m 251.525,402.501 c 0.418,1.561 0.246,3.023 -0.073,4.41 l -18.98,12.516 -10.147,-28.376 27.477,1.336 c 0.354,4.006 1.103,7.838 1.723,10.114"
           style="fill:#c04dae;fill-opacity:1;fill-rule:nonzero;stroke:none"
           id="path53102"
           inkscape:connector-curvature="0" /><path
           d="M 271.854,393.459 289.223,340.491 309,411 Z"
           style="fill:#b363b8;fill-opacity:1;fill-rule:nonzero;stroke:none"
           id="path53104"
           inkscape:connector-curvature="0" /><path
           d="M 309,411 289.223,340.491 342.879,361.3 Z"
           style="fill:#a960b6;fill-opacity:1;fill-rule:nonzero;stroke:none"
           id="path53106"
           inkscape:connector-curvature="0" /><path
           d="m 380.596,358.717 c 0.052,3.176 0.115,6.385 0.185,9.666 l -10.73,-1.58 z"
           style="fill:#6e47a7;fill-opacity:1;fill-rule:nonzero;stroke:none"
           id="path53108"
           inkscape:connector-curvature="0" /><path
           d="m 222.325,391.051 -1.467,-8.173 c 0.002,-0.043 0.005,-0.086 0.007,-0.129 3.529,-14.418 9.76,-26.45 9.731,-43.603 2.466,-0.154 6.19,-1.318 7.793,-0.424 4.055,-0.469 4.297,-4.927 5.833,-7.661 0.169,-0.297 0.338,-0.597 0.506,-0.898 l 44.495,10.328 z"
           style="fill:#f02f9f;fill-opacity:1;fill-rule:nonzero;stroke:none"
           id="path53110"
           inkscape:connector-curvature="0" /><path
           d="m 254.626,392.621 c -0.632,-4.004 -1.075,-7.994 -3.101,-10.774 v -0.909 h -0.966 c -1.064,2.985 -1.121,7.31 -0.757,11.449 l -27.477,-1.336 66.898,-50.56 -17.369,52.968 z"
           style="fill:#d054b1;fill-opacity:1;fill-rule:nonzero;stroke:none"
           id="path53112"
           inkscape:connector-curvature="0" /><path
           d="m 220.425,390.747 c 0.144,-2.624 0.289,-5.249 0.433,-7.869 l 1.467,8.173 z"
           style="fill:#ed1386;fill-opacity:1;fill-rule:nonzero;stroke:none"
           id="path53114"
           inkscape:connector-curvature="0" /><path
           d="m 342.879,361.3 -53.656,-20.809 49.873,-5.332 z"
           style="fill:#a95fb6;fill-opacity:1;fill-rule:nonzero;stroke:none"
           id="path53116"
           inkscape:connector-curvature="0" /><path
           d="m 376.414,326.045 3.434,-0.037 c -0.635,3.815 -1.635,7.358 -2.299,8.221 0.314,2.266 1.033,2.048 2.908,2.676 -0.043,7.413 0.02,14.525 0.139,21.812 l -10.545,8.086 z"
           style="fill:#7c4aa9;fill-opacity:1;fill-rule:nonzero;stroke:none"
           id="path53118"
           inkscape:connector-curvature="0" /><path
           d="m 353.215,359.356 c -0.117,-1.019 -0.088,-1.251 -0.475,-1.777 v -0.449 c -0.492,0.14 -0.984,0.275 -1.477,0.449 -0.71,1.563 -1.227,3.279 -1.656,5.083 l -6.728,-1.362 -3.783,-26.141 30.955,31.644 -17.664,-3.577 c -0.013,-1.501 0.177,-2.852 0.828,-3.87"
           style="fill:#8d55b0;fill-opacity:1;fill-rule:nonzero;stroke:none"
           id="path53120"
           inkscape:connector-curvature="0" /><path
           d="m 370.051,366.803 -30.955,-31.644 11.22,-2.74 c 0.12,1.758 0.521,2.844 1.44,4.052 1.617,0.024 3.487,0.096 4.39,-0.464 h 0.971 c -0.336,-1.765 -1.177,-3.281 -1.856,-4.795 l 21.153,-5.167 z"
           style="fill:#884fad;fill-opacity:1;fill-rule:nonzero;stroke:none"
           id="path53122"
           inkscape:connector-curvature="0" /><path
           d="m 289.223,340.491 -44.495,-10.328 c 2.06,-3.682 4.026,-7.609 5.324,-12.115 1.567,-5.342 -0.055,-12.278 1.473,-17.538 0.506,-1.75 0.967,-3.616 1.401,-5.548 l 19.96,-12.598 z"
           style="fill:#ef2e94;fill-opacity:1;fill-rule:nonzero;stroke:none"
           id="path53124"
           inkscape:connector-curvature="0" /><path
           d="m 298.236,288.381 c 0.328,1.42 0.328,0.941 0.966,1.787 0.484,-0.146 0.976,-0.28 1.459,-0.444 0.539,-2.189 3.778,-11.332 4.687,-15.76 l 31.34,-8.11 2.408,69.305 -66.21,-52.795 24.705,-6.393 c -0.923,4.449 -1.865,8.966 0.645,12.41"
           style="fill:#c046aa;fill-opacity:1;fill-rule:nonzero;stroke:none"
           id="path53126"
           inkscape:connector-curvature="0" /><path
           d="m 289.223,340.491 -16.337,-58.127 66.21,52.795 z"
           style="fill:#c951b0;fill-opacity:1;fill-rule:nonzero;stroke:none"
           id="path53128"
           inkscape:connector-curvature="0" /><path
           d="m 355.261,331.212 c -0.221,-0.492 -0.425,-0.984 -0.588,-1.484 -1.612,-4.966 -2.038,-16.124 -1.933,-22.012 7.014,0.623 3.99,7.154 6.802,11.689 v 0.44 c 0.503,-0.164 0.976,-0.304 1.454,-0.44 1.169,-2.71 2.604,-8.796 1.483,-13.047 -0.487,-1.767 -1.377,-2.827 -1.943,-4.371 l 15.878,24.058 z"
           style="fill:#9f4bab;fill-opacity:1;fill-rule:nonzero;stroke:none"
           id="path53130"
           inkscape:connector-curvature="0" /><path
           d="m 336.688,265.854 8.89,13.469 c -0.048,1.525 -0.094,3.048 -0.14,4.575 0.367,1.179 2.039,2.724 2.434,4.029 0.749,2.589 -0.831,4.956 -0.976,7.197 -0.695,11.124 -1.883,28.885 3.391,35.048 -0.02,0.866 -0.015,1.601 0.029,2.247 l -11.22,2.74 z"
           style="fill:#9f4bab;fill-opacity:1;fill-rule:nonzero;stroke:none"
           id="path53132"
           inkscape:connector-curvature="0" /><path
           d="m 252.926,294.962 c 1.738,-7.752 3.018,-16.583 4.851,-23.407 l 15.109,10.809 z"
           style="fill:#ee1c5d;fill-opacity:1;fill-rule:nonzero;stroke:none"
           id="path53134"
           inkscape:connector-curvature="0" /><path
           d="m 380.444,319.964 c -0.017,1.84 -0.253,3.981 -0.596,6.044 l -3.434,0.037 z"
           style="fill:#863fa4;fill-opacity:1;fill-rule:nonzero;stroke:none"
           id="path53136"
           inkscape:connector-curvature="0" /><path
           d="m 375.874,311.704 c 0.421,0.637 0.817,1.259 1.192,1.852 0.609,0.98 2.463,1.507 2.913,2.676 0.346,0.895 0.48,2.21 0.465,3.732 l -4.03,6.081 z"
           style="fill:#9439a1;fill-opacity:1;fill-rule:nonzero;stroke:none"
           id="path53138"
           inkscape:connector-curvature="0" /><path
           d="m 347.25,262.17 c -0.155,2.188 -1.303,4.197 -1.32,6.435 -0.128,3.584 -0.242,7.15 -0.352,10.718 l -8.89,-13.469 z"
           style="fill:#a43ba3;fill-opacity:1;fill-rule:nonzero;stroke:none"
           id="path53140"
           inkscape:connector-curvature="0" /><path
           d="m 360.536,301.987 c -0.244,-0.665 -0.428,-1.42 -0.491,-2.362 7.361,0.568 12.383,6.854 15.829,12.079 l 0.54,14.341 z"
           style="fill:#a43ba3;fill-opacity:1;fill-rule:nonzero;stroke:none"
           id="path53142"
           inkscape:connector-curvature="0" /><path
           d="m 300.661,241.198 c -2.164,8.598 -4.695,16.646 -2.425,25.606 0.688,2.726 0.027,5.929 -0.645,9.167 l -24.705,6.393 -0.345,-62.77 28.061,20.235 c 0.019,0.457 0.04,0.914 0.059,1.369"
           style="fill:#ed1294;fill-opacity:1;fill-rule:nonzero;stroke:none"
           id="path53144"
           inkscape:connector-curvature="0" /><path
           d="m 305.535,271.77 c -0.924,-3.048 -5.806,-6.527 -4.372,-11.675 0.474,-1.797 2.02,-6.704 3.396,-8.116 0.821,-0.83 2.719,-0.821 3.406,-1.777 0.715,-0.985 -0.281,-2.903 0.492,-4.076 0.069,-0.092 0.279,-0.168 0.537,-0.244 l 27.694,19.972 -31.34,8.11 c 0.214,-1.045 0.298,-1.828 0.187,-2.194"
           style="fill:#ed1294;fill-opacity:1;fill-rule:nonzero;stroke:none"
           id="path53146"
           inkscape:connector-curvature="0" /><path
           d="m 272.886,282.364 -15.109,-10.809 c 0.022,-0.082 0.044,-0.167 0.066,-0.249 0.421,-1.493 -0.314,-3.705 -0.485,-4.507 0.171,-6.57 0.33,-13.157 0.485,-19.751 1.756,-7.27 4.352,-11.694 6.342,-17.964 0.056,-1.272 0.117,-2.545 0.179,-3.816 l 8.177,-5.674 z"
           style="fill:#ed1659;fill-opacity:1;fill-rule:nonzero;stroke:none"
           id="path53148"
           inkscape:connector-curvature="0" /><path
           d="m 308.994,245.882 c 0.533,-0.158 1.275,-0.319 1.404,-0.626 0.069,-0.184 -1.149,-10.153 -1.468,-11.249 -2.12,-7.435 -0.992,-19.503 -2.847,-27.85 l 25.672,-10.283 c -0.228,2.527 -0.245,5.077 0.534,7.581 0.289,0.928 0.797,1.873 1.348,2.824 l 3.051,59.575 z"
           style="fill:#e21293;fill-opacity:1;fill-rule:nonzero;stroke:none"
           id="path53150"
           inkscape:connector-curvature="0" /><path
           d="m 300.602,239.829 -28.061,-20.235 29.116,-11.663 c -0.58,7.808 -0.096,16.235 -1.473,22.476 0.138,3.141 0.281,6.294 0.418,9.422"
           style="fill:#e21293;fill-opacity:1;fill-rule:nonzero;stroke:none"
           id="path53152"
           inkscape:connector-curvature="0" /><path
           d="m 333.637,206.279 c 0.756,1.308 1.595,2.628 2.068,3.934 3.559,9.916 5.95,20.466 9.24,30.092 1.633,4.758 -1.449,7.502 -0.483,12.148 0.27,1.285 -0.425,3.738 0.483,5.391 0.309,0.536 1.681,1.101 1.951,1.772 0.333,0.891 0.412,1.735 0.354,2.554 l -10.562,3.684 z"
           style="fill:#c32198;fill-opacity:1;fill-rule:nonzero;stroke:none"
           id="path53154"
           inkscape:connector-curvature="0" /><path
           d="m 264.364,225.268 c 0.097,-2.03 0.198,-4.057 0.297,-6.077 0.238,-1.008 0.425,-2.054 0.577,-3.122 l 7.303,3.525 z"
           style="fill:#ed1344;fill-opacity:1;fill-rule:nonzero;stroke:none"
           id="path53156"
           inkscape:connector-curvature="0" /><path
           d="m 265.238,216.069 c 0.772,-5.398 0.662,-11.369 1.848,-16.208 0.174,-3.574 0.333,-7.197 0.488,-10.771 0.242,-1.004 0.453,-2.04 0.645,-3.095 l 4.322,33.599 z"
           style="fill:#ed1344;fill-opacity:1;fill-rule:nonzero;stroke:none"
           id="path53158"
           inkscape:connector-curvature="0" /><path
           d="m 331.755,195.874 -25.672,10.283 c -0.46,-2.07 -1.104,-3.913 -2.026,-5.397 h -1.43 c -0.494,2.267 -0.785,4.688 -0.97,7.171 l -29.116,11.663 -4.322,-33.599 c 1.109,-6.101 1.537,-12.86 3.253,-18.033 0.385,-1.157 0.636,-2.32 0.821,-3.47 l 59.578,30.241 c -0.043,0.379 -0.082,0.76 -0.116,1.141"
           style="fill:#ec0c61;fill-opacity:1;fill-rule:nonzero;stroke:none"
           id="path53160"
           inkscape:connector-curvature="0" /><path
           d="m 326.459,172.908 c 0.102,6.019 3.869,6.096 5.353,10.327 1.26,3.575 0.502,7.496 0.059,11.498 l -59.578,-30.241 c 0.203,-1.27 0.326,-2.523 0.459,-3.731 l 55.74,-0.123 c 0.836,4.597 0.584,9.044 -2.033,12.27"
           style="fill:#e8057e;fill-opacity:1;fill-rule:nonzero;stroke:none"
           id="path53162"
           inkscape:connector-curvature="0" /><path
           d="m 274.828,113.99 c 5.154,-6.045 22.753,-2.656 28.287,0.511 0.174,0.807 0.86,2.154 0.942,2.695 -0.16,0.73 -0.295,1.488 -0.469,2.251 0.203,0.657 1.72,1.71 1.947,2.246 1.091,2.599 -1.188,6.661 -0.488,8.496 0.488,0.32 0.971,0.638 1.449,0.957 0.526,0.98 1.443,4.009 2.434,5.825 2.386,0.024 4.511,0.024 5.845,-0.908 5.347,0.078 5.168,2.791 6.83,6.293 0.669,1.448 1.604,3.354 2.582,5.532 z"
           style="fill:#d80b76;fill-opacity:1;fill-rule:nonzero;stroke:none"
           id="path53164"
           inkscape:connector-curvature="0" /><path
           d="m 328.492,160.638 -55.74,0.123 c 0.401,-3.663 0.901,-6.908 4.076,-8.956 -0.422,-1.077 -0.203,-0.758 -0.982,-1.367 0.636,-3.333 3.463,-4.531 4.376,-7.202 -0.143,-2.69 -0.314,-5.385 -0.478,-8.081 1.67,-6.869 -0.686,-7.415 -3.404,-12.115 -1.209,-2.076 -1.246,-3.893 -2.932,-5.409 0.092,-1.48 0.599,-2.679 1.42,-3.641 l 49.359,33.898 c 1.686,3.756 3.5,8.323 4.305,12.75"
           style="fill:#e81052;fill-opacity:1;fill-rule:nonzero;stroke:none"
           id="path53166"
           inkscape:connector-curvature="0" /></g></g></g></svg>